<?xml version="1.0" standalone="no"?>
<!DOCTYPE svg PUBLIC "-//W3C//DTD SVG 20010904//EN"
 "http://www.w3.org/TR/2001/REC-SVG-20010904/DTD/svg10.dtd">
<svg version="1.0" xmlns="http://www.w3.org/2000/svg"
 width="180.000000pt" height="180.000000pt" viewBox="0 0 180.000000 180.000000"
 preserveAspectRatio="xMidYMid meet">

<g transform="translate(0.000000,180.000000) scale(0.100000,-0.100000)"
fill="#fff" stroke="none">
<path d="M801 1535 c-24 -8 -48 -20 -52 -27 -15 -24 -10 -35 15 -31 43 9 66
-13 66 -60 0 -58 -27 -87 -80 -87 -45 0 -56 11 -38 40 16 25 3 49 -36 68 -53
26 -120 -8 -158 -81 -27 -52 -36 -193 -18 -276 13 -60 67 -181 81 -181 5 0 21
18 35 40 54 82 51 25 -4 -82 -2 -5 3 -8 11 -8 18 0 90 77 112 120 9 17 19 30
22 27 11 -12 -10 -69 -48 -127 -21 -33 -39 -64 -39 -68 0 -12 122 -90 178
-113 l53 -22 82 41 c45 22 97 53 115 69 l32 28 -35 52 c-38 55 -69 132 -59
142 4 3 9 0 11 -7 9 -24 94 -133 109 -139 26 -10 27 5 5 57 -32 74 -23 92 18
34 32 -46 34 -47 48 -28 67 87 99 257 72 383 -23 110 -109 174 -184 138 -28
-14 -35 -22 -35 -46 0 -17 5 -33 10 -36 19 -12 -1 -25 -39 -25 -53 0 -73 25
-83 108 -12 105 -57 131 -167 97z"/>
</g>
</svg>
